<svg width="45" height="50" viewBox="0 0 45 50" fill="none" xmlns="http://www.w3.org/2000/svg">
<g clip-path="url(#clip0)">
<rect width="45" height="50" fill="white"/>
<rect width="45.2381" height="50" fill="white"/>
<circle cx="22.4252" cy="24.9252" r="9.5" fill="#AAA9A9"/>
<path fill-rule="evenodd" clip-rule="evenodd" d="M15.4219 24.1697C15.8347 24.0389 16.281 24.2503 16.4197 24.6419L16.4211 24.6458C16.4229 24.6505 16.4262 24.6593 16.431 24.6718C16.4407 24.6968 16.4568 24.7368 16.4796 24.7896C16.5253 24.8953 16.5978 25.0516 16.7005 25.2415C16.9068 25.6228 17.2303 26.1311 17.6965 26.6372C18.6196 27.6395 20.0944 28.631 22.3818 28.631C24.6693 28.631 26.144 27.6395 27.0672 26.6372C27.5333 26.1311 27.8569 25.6228 28.0631 25.2415C28.1659 25.0516 28.2383 24.8953 28.284 24.7896C28.3069 24.7368 28.3229 24.6968 28.3327 24.6718C28.3375 24.6593 28.3408 24.6505 28.3425 24.6458L28.3435 24.6434C28.3436 24.6429 28.3438 24.6423 28.344 24.6418C28.4828 24.2503 28.9289 24.0389 29.3418 24.1697C29.7554 24.3007 29.979 24.7254 29.8411 25.1183L29.0922 24.8812C29.8411 25.1183 29.841 25.1187 29.8409 25.1191L29.8406 25.1199L29.8399 25.1219L29.838 25.1271L29.8324 25.1423C29.8279 25.1546 29.8217 25.1711 29.8137 25.1916C29.7978 25.2325 29.7749 25.2892 29.7446 25.3594C29.6839 25.4998 29.5929 25.6951 29.4675 25.9271C29.2173 26.3894 28.8254 27.0061 28.2554 27.6249C27.1062 28.8726 25.2258 30.131 22.3818 30.131C19.5379 30.131 17.6574 28.8726 16.5083 27.6249C15.9383 27.0061 15.5464 26.3894 15.2962 25.9271C15.1708 25.6951 15.0798 25.4998 15.0191 25.3594C14.9887 25.2892 14.9659 25.2325 14.95 25.1916C14.942 25.1711 14.9358 25.1546 14.9312 25.1423L14.9257 25.1271L14.9238 25.1219L14.9231 25.1199L14.9228 25.1191C14.9227 25.1187 14.9226 25.1183 15.6715 24.8812L14.9226 25.1183C14.7847 24.7254 15.0082 24.3007 15.4219 24.1697Z" fill="white"/>
</g>
<defs>
<clipPath id="clip0">
<rect width="45" height="50" fill="white"/>
</clipPath>
</defs>
</svg>
